<svg xmlns="http://www.w3.org/2000/svg" xmlns:xlink="http://www.w3.org/1999/xlink" width="500" zoomAndPan="magnify" viewBox="0 0 375 374.999991" height="500" preserveAspectRatio="xMidYMid meet" version="1.2"><defs><clipPath id="2725190bda"><path d="M 187.5 0 C 83.945312 0 0 83.945312 0 187.5 C 0 291.054688 83.945312 375 187.5 375 C 291.054688 375 375 291.054688 375 187.5 C 375 83.945312 291.054688 0 187.5 0 Z M 187.5 0 "/></clipPath><clipPath id="8364c43b31"><path d="M 60.363281 62.113281 L 314.613281 62.113281 L 314.613281 312.613281 L 60.363281 312.613281 Z M 60.363281 62.113281 "/></clipPath><clipPath id="3257416dc2"><path d="M 60.367188 62.113281 L 314.613281 62.113281 L 314.613281 312.613281 L 60.367188 312.613281 Z M 60.367188 62.113281 "/></clipPath><clipPath id="851fcb5947"><path d="M 79.242188 143.664062 C 78.886719 143.59375 78.386719 143.59375 77.890625 143.59375 C 75.753906 143.59375 73.902344 144.449219 72.476562 145.800781 C 71.125 147.15625 70.269531 149.078125 70.269531 151.214844 C 70.269531 153.351562 71.125 155.203125 72.476562 156.628906 C 73.828125 157.980469 75.753906 158.835938 77.890625 158.835938 C 79.597656 158.835938 81.167969 158.265625 82.378906 157.339844 C 83.660156 156.414062 84.65625 155.0625 85.15625 153.492188 C 85.226562 153.136719 85.367188 152.78125 85.441406 152.355469 C 85.511719 151.996094 85.511719 151.570312 85.511719 151.214844 C 85.511719 149.578125 85.011719 148.082031 84.15625 146.871094 C 83.304688 145.585938 82.019531 144.589844 80.597656 144.09375 C 80.097656 143.878906 79.671875 143.734375 79.242188 143.664062 M 149.542969 255.417969 C 148.832031 255.273438 148.117188 255.203125 147.335938 255.203125 C 144.984375 255.203125 142.847656 255.914062 141.136719 257.199219 C 139.355469 258.480469 138.003906 260.332031 137.292969 262.46875 C 137.148438 262.96875 137.007812 263.535156 136.863281 264.105469 C 136.792969 264.605469 136.722656 265.175781 136.722656 265.816406 C 136.722656 268.738281 137.933594 271.371094 139.855469 273.292969 C 141.777344 275.21875 144.414062 276.429688 147.335938 276.429688 C 150.253906 276.429688 152.890625 275.21875 154.8125 273.292969 C 156.738281 271.371094 157.945312 268.738281 157.945312 265.816406 C 157.945312 263.679688 157.304688 261.683594 156.308594 260.046875 C 155.167969 258.335938 153.601562 256.984375 151.75 256.128906 C 151.039062 255.773438 150.324219 255.558594 149.542969 255.417969 Z M 288.789062 261.117188 C 286.867188 259.191406 284.230469 257.980469 281.308594 257.980469 C 279.246094 257.980469 277.320312 258.550781 275.683594 259.546875 C 273.972656 260.617188 272.621094 262.113281 271.765625 263.894531 C 271.410156 264.605469 271.195312 265.316406 270.980469 266.171875 C 270.839844 266.882812 270.695312 267.738281 270.695312 268.59375 C 270.695312 269.164062 270.769531 269.734375 270.839844 270.230469 C 270.910156 270.730469 271.054688 271.300781 271.195312 271.800781 C 271.90625 274.007812 273.261719 275.859375 275.042969 277.140625 C 276.75 278.421875 278.960938 279.136719 281.308594 279.136719 C 284.230469 279.136719 286.867188 277.925781 288.789062 276 C 290.710938 274.078125 291.921875 271.441406 291.921875 268.523438 C 291.851562 265.746094 290.710938 263.039062 288.789062 261.117188 Z M 249.257812 105.984375 C 247.832031 104.5625 245.839844 103.636719 243.632812 103.636719 C 242.136719 103.636719 240.78125 103.992188 239.644531 104.703125 C 238.433594 105.417969 237.433594 106.414062 236.722656 107.625 C 236.367188 108.195312 236.082031 108.835938 235.9375 109.546875 C 235.796875 110.1875 235.652344 110.902344 235.652344 111.613281 C 235.652344 113.820312 236.582031 115.816406 238.003906 117.238281 C 239.429688 118.664062 241.421875 119.589844 243.632812 119.589844 C 245.554688 119.589844 247.335938 118.949219 248.6875 117.808594 C 250.113281 116.671875 251.109375 115.03125 251.464844 113.179688 C 251.539062 112.824219 251.609375 112.609375 251.609375 112.398438 C 251.609375 112.253906 251.609375 111.96875 251.609375 111.613281 C 251.609375 109.40625 250.753906 107.410156 249.257812 105.984375 Z M 196.550781 183.410156 C 195.554688 182.410156 194.128906 181.769531 192.5625 181.769531 C 191.351562 181.769531 190.210938 182.199219 189.285156 182.839844 C 188.359375 183.550781 187.648438 184.546875 187.222656 185.6875 C 187.148438 185.972656 187.078125 186.257812 187.007812 186.472656 C 186.9375 186.757812 186.9375 187.039062 186.9375 187.324219 C 186.9375 188.894531 187.578125 190.246094 188.574219 191.242188 C 189.570312 192.242188 190.996094 192.882812 192.492188 192.882812 C 193.773438 192.882812 194.914062 192.453125 195.769531 191.8125 C 196.695312 191.101562 197.40625 190.105469 197.761719 188.964844 C 197.832031 188.75 197.90625 188.464844 197.976562 188.109375 C 198.046875 187.824219 198.046875 187.539062 198.046875 187.253906 C 198.191406 185.757812 197.546875 184.40625 196.550781 183.410156 Z M 261.011719 265.671875 C 258.304688 265.390625 255.597656 265.390625 252.820312 265.816406 C 248.546875 266.386719 244.273438 267.808594 240.355469 270.089844 C 234.300781 273.578125 229.671875 278.707031 226.820312 284.546875 C 223.832031 290.601562 222.691406 297.441406 223.546875 304.136719 L 224.117188 308.621094 L 219.699219 309.621094 C 210.796875 311.613281 201.679688 312.613281 192.492188 312.613281 C 183.445312 312.613281 174.398438 311.613281 165.425781 309.621094 L 167.5625 300.003906 C 175.824219 301.855469 184.230469 302.710938 192.5625 302.710938 C 199.613281 302.710938 206.59375 302.070312 213.433594 300.789062 C 213.21875 293.59375 214.785156 286.542969 217.992188 280.132812 C 221.695312 272.582031 227.605469 266.03125 235.441406 261.542969 C 240.570312 258.621094 246.054688 256.769531 251.539062 256.058594 C 256.023438 255.417969 260.582031 255.558594 265 256.34375 C 266.496094 254.347656 268.347656 252.640625 270.484375 251.355469 C 273.617188 249.363281 277.320312 248.292969 281.308594 248.292969 C 286.9375 248.292969 292.066406 250.574219 295.769531 254.277344 C 299.472656 257.980469 301.75 263.109375 301.75 268.738281 C 301.75 274.363281 299.472656 279.492188 295.769531 283.195312 C 292.066406 286.898438 286.9375 289.179688 281.308594 289.179688 C 276.824219 289.179688 272.621094 287.683594 269.203125 285.191406 C 265.710938 282.625 263.074219 279.0625 261.722656 274.863281 C 261.4375 273.863281 261.152344 272.867188 261.011719 271.800781 C 260.867188 270.800781 260.796875 269.734375 260.796875 268.664062 C 260.796875 267.667969 260.867188 266.671875 261.011719 265.671875 Z M 261.296875 108.976562 C 263.574219 108.691406 265.78125 108.195312 267.992188 107.554688 C 271.695312 106.34375 275.183594 104.5625 278.246094 102.140625 L 281.808594 99.363281 L 284.871094 102.710938 C 291.066406 109.476562 296.480469 116.882812 300.96875 124.71875 C 305.597656 132.695312 309.230469 141.101562 312.007812 149.789062 L 313.359375 154.0625 L 309.160156 155.773438 C 302.890625 158.410156 297.550781 162.824219 293.773438 168.378906 C 290.140625 173.792969 288.074219 180.273438 288.074219 187.324219 C 288.074219 194.378906 290.214844 200.859375 293.773438 206.273438 C 297.550781 211.898438 302.890625 216.316406 309.160156 218.878906 L 314.359375 221.015625 L 311.507812 225.859375 L 300.824219 244.304688 L 292.277344 239.390625 L 300.328125 225.503906 C 294.414062 222.082031 289.359375 217.382812 285.511719 211.683594 C 280.8125 204.703125 278.105469 196.300781 278.105469 187.253906 C 278.105469 178.207031 280.8125 169.804688 285.511719 162.824219 C 289.5 156.914062 294.84375 151.996094 301.109375 148.578125 C 298.761719 141.957031 295.839844 135.617188 292.351562 129.5625 C 288.929688 123.578125 284.871094 117.882812 280.3125 112.539062 C 277.320312 114.390625 274.117188 115.816406 270.839844 116.882812 C 267.277344 118.023438 263.503906 118.734375 259.726562 118.949219 C 258.589844 121.441406 256.878906 123.648438 254.8125 125.359375 C 251.75 127.921875 247.761719 129.417969 243.488281 129.417969 C 238.574219 129.417969 234.085938 127.425781 230.882812 124.21875 C 227.675781 121.015625 225.683594 116.527344 225.683594 111.613281 C 225.683594 110.046875 225.894531 108.480469 226.324219 106.984375 C 226.394531 106.769531 226.394531 106.628906 226.464844 106.414062 C 221.980469 101.996094 218.558594 96.796875 216.351562 91.101562 C 214.214844 85.617188 213.148438 79.773438 213.359375 73.863281 C 206.453125 72.582031 199.472656 71.941406 192.5625 72.011719 C 185.511719 72.011719 178.53125 72.652344 171.695312 73.933594 C 171.90625 81.128906 170.339844 88.179688 167.136719 94.589844 C 163.429688 102.140625 157.519531 108.691406 149.683594 113.179688 C 141.851562 117.667969 133.230469 119.519531 124.828125 119.019531 C 117.703125 118.523438 110.796875 116.386719 104.671875 112.609375 C 102.890625 114.675781 101.179688 116.882812 99.542969 119.164062 C 97.050781 122.582031 94.769531 126.070312 92.632812 129.703125 C 91.492188 131.628906 90.496094 133.550781 89.5 135.472656 C 89.144531 136.113281 88.859375 136.753906 88.503906 137.398438 C 89.925781 138.464844 91.136719 139.746094 92.136719 141.242188 C 94.128906 144.09375 95.269531 147.511719 95.269531 151.214844 C 95.269531 152.070312 95.199219 152.996094 95.054688 153.851562 C 94.914062 154.703125 94.699219 155.558594 94.484375 156.414062 C 93.347656 160.046875 91.136719 163.109375 88.144531 165.316406 C 85.226562 167.453125 81.664062 168.734375 77.820312 168.734375 C 72.976562 168.734375 68.628906 166.8125 65.425781 163.609375 C 62.363281 160.402344 60.367188 156.058594 60.367188 151.214844 C 60.367188 146.371094 62.363281 142.027344 65.496094 138.820312 C 68.628906 135.6875 73.046875 133.691406 77.890625 133.691406 C 78.386719 133.691406 78.886719 133.691406 79.457031 133.765625 C 79.882812 132.839844 80.3125 131.914062 80.808594 130.988281 C 81.878906 128.851562 83.019531 126.785156 84.230469 124.71875 C 86.578125 120.660156 89.070312 116.8125 91.707031 113.25 C 94.34375 109.617188 97.261719 106.058594 100.324219 102.710938 L 103.386719 99.363281 L 106.949219 102.140625 C 112.363281 106.269531 118.84375 108.691406 125.539062 109.121094 C 132.09375 109.546875 138.789062 108.125 144.839844 104.632812 C 150.894531 101.144531 155.527344 96.015625 158.375 90.175781 C 161.367188 84.121094 162.503906 77.28125 161.652344 70.585938 L 161.082031 66.101562 L 165.496094 65.101562 C 174.328125 63.109375 183.445312 62.113281 192.632812 62.113281 C 201.679688 62.113281 210.726562 63.109375 219.699219 65.101562 L 224.117188 66.101562 L 223.546875 70.585938 C 222.761719 76.355469 223.546875 82.195312 225.613281 87.609375 C 227.105469 91.457031 229.316406 95.015625 232.09375 98.082031 C 232.875 97.367188 233.800781 96.796875 234.726562 96.226562 C 237.363281 94.734375 240.425781 93.878906 243.632812 93.878906 C 248.546875 93.878906 253.03125 95.871094 256.238281 99.078125 C 258.945312 101.640625 260.726562 105.132812 261.296875 108.976562 Z M 128.601562 182.410156 C 128.886719 178.492188 129.597656 174.503906 130.597656 170.660156 C 132.019531 165.386719 134.15625 160.1875 137.007812 155.203125 C 145.910156 139.820312 160.15625 129.492188 175.96875 125.289062 C 191.851562 121.015625 209.371094 122.867188 224.683594 131.699219 C 240.070312 140.601562 250.398438 154.847656 254.601562 170.660156 C 258.730469 186.113281 257.164062 203.136719 248.832031 218.167969 L 248.191406 219.304688 C 239.285156 234.691406 225.042969 244.945312 209.160156 249.222656 C 193.703125 253.351562 176.679688 251.785156 161.652344 243.453125 L 161.367188 243.308594 C 161.082031 243.167969 160.726562 242.953125 160.441406 242.808594 C 154.242188 239.25 148.902344 234.832031 144.484375 229.777344 C 139.855469 224.503906 136.152344 218.59375 133.445312 212.324219 L 142.492188 208.480469 C 144.769531 213.820312 147.90625 218.808594 151.820312 223.222656 C 155.382812 227.285156 159.585938 230.84375 164.429688 233.695312 L 165.355469 234.191406 C 178.316406 241.671875 193.132812 243.238281 206.59375 239.605469 C 220.054688 235.972656 232.09375 227.285156 239.570312 214.320312 C 247.050781 201.355469 248.617188 186.542969 244.984375 173.082031 C 241.351562 159.617188 232.664062 147.582031 219.699219 140.101562 C 206.738281 132.625 191.921875 131.058594 178.460938 134.691406 C 165 138.324219 152.960938 147.011719 145.484375 159.976562 C 143.0625 164.175781 141.28125 168.523438 140.070312 173.007812 C 139.214844 176.070312 138.714844 179.136719 138.429688 182.199219 L 177.960938 182.199219 C 178.957031 179.136719 180.953125 176.5 183.515625 174.648438 C 186.082031 172.796875 189.214844 171.65625 192.632812 171.65625 C 196.90625 171.65625 200.753906 173.367188 203.601562 176.214844 C 206.378906 178.992188 208.160156 182.910156 208.160156 187.113281 C 208.160156 187.894531 208.089844 188.679688 208.019531 189.460938 C 207.875 190.246094 207.734375 190.957031 207.519531 191.742188 C 206.523438 194.945312 204.527344 197.652344 201.894531 199.578125 C 199.328125 201.429688 196.195312 202.566406 192.777344 202.566406 C 188.503906 202.566406 184.65625 200.859375 181.878906 198.007812 C 180.242188 196.371094 178.957031 194.304688 178.175781 192.027344 L 106.664062 192.027344 C 105.882812 199.148438 103.316406 205.773438 99.542969 211.542969 C 95.554688 217.453125 90.210938 222.367188 83.945312 225.789062 C 86.292969 232.410156 89.214844 238.75 92.703125 244.804688 C 96.125 250.789062 100.183594 256.484375 104.742188 261.828125 C 108.304688 259.621094 112.148438 257.980469 116.210938 256.914062 C 120.554688 255.703125 125.042969 255.203125 129.527344 255.347656 C 131.023438 252.78125 133.019531 250.574219 135.367188 248.863281 C 138.714844 246.441406 142.847656 245.019531 147.335938 245.019531 C 148.757812 245.019531 150.183594 245.160156 151.609375 245.445312 C 153.03125 245.730469 154.386719 246.230469 155.667969 246.800781 C 159.300781 248.4375 162.363281 251.074219 164.5 254.347656 C 166.566406 257.554688 167.777344 261.398438 167.777344 265.460938 C 167.777344 271.085938 165.496094 276.214844 161.792969 279.917969 C 158.089844 283.621094 152.960938 285.902344 147.335938 285.902344 C 141.707031 285.902344 136.578125 283.621094 132.875 279.917969 C 129.171875 276.214844 126.894531 271.085938 126.894531 265.460938 L 126.894531 265.175781 C 124.1875 265.246094 121.480469 265.675781 118.84375 266.386719 C 114.570312 267.527344 110.582031 269.519531 107.019531 272.226562 L 103.460938 275.003906 L 100.398438 271.65625 C 94.199219 264.890625 88.789062 257.484375 84.300781 249.648438 C 79.671875 241.671875 76.039062 233.265625 73.261719 224.578125 L 71.90625 220.304688 L 76.109375 218.59375 C 82.378906 215.957031 87.71875 211.542969 91.492188 205.988281 C 95.125 200.574219 97.191406 194.09375 97.191406 187.039062 L 97.191406 182.125 L 128.601562 182.125 Z M 128.601562 182.410156 "/></clipPath></defs><g id="1800b40d46"><g clip-rule="nonzero" clip-path="url(#2725190bda)"><rect x="0" width="375" y="0" height="374.999991" style="fill:#000000;fill-opacity:1;stroke:none;"/></g><g clip-rule="nonzero" clip-path="url(#8364c43b31)"><path style=" stroke:none;fill-rule:evenodd;fill:#020202;fill-opacity:1;" d="M 79.242188 143.664062 C 78.886719 143.59375 78.386719 143.59375 77.890625 143.59375 C 75.753906 143.59375 73.902344 144.449219 72.476562 145.800781 C 71.125 147.15625 70.269531 149.078125 70.269531 151.214844 C 70.269531 153.351562 71.125 155.203125 72.476562 156.628906 C 73.828125 157.980469 75.753906 158.835938 77.890625 158.835938 C 79.597656 158.835938 81.167969 158.265625 82.378906 157.339844 C 83.660156 156.414062 84.65625 155.0625 85.15625 153.492188 C 85.226562 153.136719 85.367188 152.78125 85.441406 152.355469 C 85.511719 151.996094 85.511719 151.570312 85.511719 151.214844 C 85.511719 149.578125 85.011719 148.082031 84.15625 146.871094 C 83.304688 145.585938 82.019531 144.589844 80.597656 144.09375 C 80.097656 143.878906 79.671875 143.734375 79.242188 143.664062 M 149.542969 255.417969 C 148.832031 255.273438 148.117188 255.203125 147.335938 255.203125 C 144.984375 255.203125 142.847656 255.914062 141.136719 257.199219 C 139.355469 258.480469 138.003906 260.332031 137.292969 262.46875 C 137.148438 262.96875 137.007812 263.535156 136.863281 264.105469 C 136.792969 264.605469 136.722656 265.175781 136.722656 265.816406 C 136.722656 268.738281 137.933594 271.371094 139.855469 273.292969 C 141.777344 275.21875 144.414062 276.429688 147.335938 276.429688 C 150.253906 276.429688 152.890625 275.21875 154.8125 273.292969 C 156.738281 271.371094 157.945312 268.738281 157.945312 265.816406 C 157.945312 263.679688 157.304688 261.683594 156.308594 260.046875 C 155.167969 258.335938 153.601562 256.984375 151.75 256.128906 C 151.039062 255.773438 150.324219 255.558594 149.542969 255.417969 Z M 288.789062 261.117188 C 286.867188 259.191406 284.230469 257.980469 281.308594 257.980469 C 279.246094 257.980469 277.320312 258.550781 275.683594 259.546875 C 273.972656 260.617188 272.621094 262.113281 271.765625 263.894531 C 271.410156 264.605469 271.195312 265.316406 270.980469 266.171875 C 270.839844 266.882812 270.695312 267.738281 270.695312 268.59375 C 270.695312 269.164062 270.769531 269.734375 270.839844 270.230469 C 270.910156 270.730469 271.054688 271.300781 271.195312 271.800781 C 271.90625 274.007812 273.261719 275.859375 275.042969 277.140625 C 276.75 278.421875 278.960938 279.136719 281.308594 279.136719 C 284.230469 279.136719 286.867188 277.925781 288.789062 276 C 290.710938 274.078125 291.921875 271.441406 291.921875 268.523438 C 291.851562 265.746094 290.710938 263.039062 288.789062 261.117188 Z M 249.257812 105.984375 C 247.832031 104.5625 245.839844 103.636719 243.632812 103.636719 C 242.136719 103.636719 240.78125 103.992188 239.644531 104.703125 C 238.433594 105.417969 237.433594 106.414062 236.722656 107.625 C 236.367188 108.195312 236.082031 108.835938 235.9375 109.546875 C 235.796875 110.1875 235.652344 110.902344 235.652344 111.613281 C 235.652344 113.820312 236.582031 115.816406 238.003906 117.238281 C 239.429688 118.664062 241.421875 119.589844 243.632812 119.589844 C 245.554688 119.589844 247.335938 118.949219 248.6875 117.808594 C 250.113281 116.671875 251.109375 115.03125 251.464844 113.179688 C 251.539062 112.824219 251.609375 112.609375 251.609375 112.398438 C 251.609375 112.253906 251.609375 111.96875 251.609375 111.613281 C 251.609375 109.40625 250.753906 107.410156 249.257812 105.984375 Z M 196.550781 183.410156 C 195.554688 182.410156 194.128906 181.769531 192.5625 181.769531 C 191.351562 181.769531 190.210938 182.199219 189.285156 182.839844 C 188.359375 183.550781 187.648438 184.546875 187.222656 185.6875 C 187.148438 185.972656 187.078125 186.257812 187.007812 186.472656 C 186.9375 186.757812 186.9375 187.039062 186.9375 187.324219 C 186.9375 188.894531 187.578125 190.246094 188.574219 191.242188 C 189.570312 192.242188 190.996094 192.882812 192.492188 192.882812 C 193.773438 192.882812 194.914062 192.453125 195.769531 191.8125 C 196.695312 191.101562 197.40625 190.105469 197.761719 188.964844 C 197.832031 188.75 197.90625 188.464844 197.976562 188.109375 C 198.046875 187.824219 198.046875 187.539062 198.046875 187.253906 C 198.191406 185.757812 197.546875 184.40625 196.550781 183.410156 Z M 261.011719 265.671875 C 258.304688 265.390625 255.597656 265.390625 252.820312 265.816406 C 248.546875 266.386719 244.273438 267.808594 240.355469 270.089844 C 234.300781 273.578125 229.671875 278.707031 226.820312 284.546875 C 223.832031 290.601562 222.691406 297.441406 223.546875 304.136719 L 224.117188 308.621094 L 219.699219 309.621094 C 210.796875 311.613281 201.679688 312.613281 192.492188 312.613281 C 183.445312 312.613281 174.398438 311.613281 165.425781 309.621094 L 167.5625 300.003906 C 175.824219 301.855469 184.230469 302.710938 192.5625 302.710938 C 199.613281 302.710938 206.59375 302.070312 213.433594 300.789062 C 213.21875 293.59375 214.785156 286.542969 217.992188 280.132812 C 221.695312 272.582031 227.605469 266.03125 235.441406 261.542969 C 240.570312 258.621094 246.054688 256.769531 251.539062 256.058594 C 256.023438 255.417969 260.582031 255.558594 265 256.34375 C 266.496094 254.347656 268.347656 252.640625 270.484375 251.355469 C 273.617188 249.363281 277.320312 248.292969 281.308594 248.292969 C 286.9375 248.292969 292.066406 250.574219 295.769531 254.277344 C 299.472656 257.980469 301.75 263.109375 301.75 268.738281 C 301.75 274.363281 299.472656 279.492188 295.769531 283.195312 C 292.066406 286.898438 286.9375 289.179688 281.308594 289.179688 C 276.824219 289.179688 272.621094 287.683594 269.203125 285.191406 C 265.710938 282.625 263.074219 279.0625 261.722656 274.863281 C 261.4375 273.863281 261.152344 272.867188 261.011719 271.800781 C 260.867188 270.800781 260.796875 269.734375 260.796875 268.664062 C 260.796875 267.667969 260.867188 266.671875 261.011719 265.671875 Z M 261.296875 108.976562 C 263.574219 108.691406 265.78125 108.195312 267.992188 107.554688 C 271.695312 106.34375 275.183594 104.5625 278.246094 102.140625 L 281.808594 99.363281 L 284.871094 102.710938 C 291.066406 109.476562 296.480469 116.882812 300.96875 124.71875 C 305.597656 132.695312 309.230469 141.101562 312.007812 149.789062 L 313.359375 154.0625 L 309.160156 155.773438 C 302.890625 158.410156 297.550781 162.824219 293.773438 168.378906 C 290.140625 173.792969 288.074219 180.273438 288.074219 187.324219 C 288.074219 194.378906 290.214844 200.859375 293.773438 206.273438 C 297.550781 211.898438 302.890625 216.316406 309.160156 218.878906 L 314.359375 221.015625 L 311.507812 225.859375 L 300.824219 244.304688 L 292.277344 239.390625 L 300.328125 225.503906 C 294.414062 222.082031 289.359375 217.382812 285.511719 211.683594 C 280.8125 204.703125 278.105469 196.300781 278.105469 187.253906 C 278.105469 178.207031 280.8125 169.804688 285.511719 162.824219 C 289.5 156.914062 294.84375 151.996094 301.109375 148.578125 C 298.761719 141.957031 295.839844 135.617188 292.351562 129.5625 C 288.929688 123.578125 284.871094 117.882812 280.3125 112.539062 C 277.320312 114.390625 274.117188 115.816406 270.839844 116.882812 C 267.277344 118.023438 263.503906 118.734375 259.726562 118.949219 C 258.589844 121.441406 256.878906 123.648438 254.8125 125.359375 C 251.75 127.921875 247.761719 129.417969 243.488281 129.417969 C 238.574219 129.417969 234.085938 127.425781 230.882812 124.21875 C 227.675781 121.015625 225.683594 116.527344 225.683594 111.613281 C 225.683594 110.046875 225.894531 108.480469 226.324219 106.984375 C 226.394531 106.769531 226.394531 106.628906 226.464844 106.414062 C 221.980469 101.996094 218.558594 96.796875 216.351562 91.101562 C 214.214844 85.617188 213.148438 79.773438 213.359375 73.863281 C 206.453125 72.582031 199.472656 71.941406 192.5625 72.011719 C 185.511719 72.011719 178.53125 72.652344 171.695312 73.933594 C 171.90625 81.128906 170.339844 88.179688 167.136719 94.589844 C 163.429688 102.140625 157.519531 108.691406 149.683594 113.179688 C 141.851562 117.667969 133.230469 119.519531 124.828125 119.019531 C 117.703125 118.523438 110.796875 116.386719 104.671875 112.609375 C 102.890625 114.675781 101.179688 116.882812 99.542969 119.164062 C 97.050781 122.582031 94.769531 126.070312 92.632812 129.703125 C 91.492188 131.628906 90.496094 133.550781 89.5 135.472656 C 89.144531 136.113281 88.859375 136.753906 88.503906 137.398438 C 89.925781 138.464844 91.136719 139.746094 92.136719 141.242188 C 94.128906 144.09375 95.269531 147.511719 95.269531 151.214844 C 95.269531 152.070312 95.199219 152.996094 95.054688 153.851562 C 94.914062 154.703125 94.699219 155.558594 94.484375 156.414062 C 93.347656 160.046875 91.136719 163.109375 88.144531 165.316406 C 85.226562 167.453125 81.664062 168.734375 77.820312 168.734375 C 72.976562 168.734375 68.628906 166.8125 65.425781 163.609375 C 62.363281 160.402344 60.367188 156.058594 60.367188 151.214844 C 60.367188 146.371094 62.363281 142.027344 65.496094 138.820312 C 68.628906 135.6875 73.046875 133.691406 77.890625 133.691406 C 78.386719 133.691406 78.886719 133.691406 79.457031 133.765625 C 79.882812 132.839844 80.3125 131.914062 80.808594 130.988281 C 81.878906 128.851562 83.019531 126.785156 84.230469 124.71875 C 86.578125 120.660156 89.070312 116.8125 91.707031 113.25 C 94.34375 109.617188 97.261719 106.058594 100.324219 102.710938 L 103.386719 99.363281 L 106.949219 102.140625 C 112.363281 106.269531 118.84375 108.691406 125.539062 109.121094 C 132.09375 109.546875 138.789062 108.121094 144.839844 104.632812 C 150.894531 101.144531 155.527344 96.015625 158.375 90.175781 C 161.367188 84.121094 162.503906 77.28125 161.652344 70.585938 L 161.082031 66.101562 L 165.496094 65.101562 C 174.328125 63.109375 183.445312 62.113281 192.632812 62.113281 C 201.679688 62.113281 210.726562 63.109375 219.699219 65.101562 L 224.117188 66.101562 L 223.546875 70.585938 C 222.761719 76.355469 223.546875 82.195312 225.613281 87.609375 C 227.105469 91.457031 229.316406 95.015625 232.09375 98.082031 C 232.875 97.367188 233.800781 96.796875 234.726562 96.226562 C 237.363281 94.734375 240.425781 93.878906 243.632812 93.878906 C 248.546875 93.878906 253.035156 95.871094 256.238281 99.078125 C 258.945312 101.640625 260.726562 105.132812 261.296875 108.976562 Z M 128.601562 182.410156 C 128.886719 178.492188 129.597656 174.503906 130.597656 170.660156 C 132.019531 165.386719 134.15625 160.1875 137.007812 155.203125 C 145.910156 139.820312 160.15625 129.492188 175.96875 125.289062 C 191.851562 121.015625 209.371094 122.867188 224.683594 131.699219 C 240.070312 140.601562 250.398438 154.847656 254.601562 170.660156 C 258.730469 186.113281 257.164062 203.136719 248.832031 218.167969 L 248.191406 219.304688 C 239.285156 234.691406 225.042969 244.945312 209.160156 249.222656 C 193.703125 253.351562 176.679688 251.785156 161.652344 243.453125 L 161.367188 243.308594 C 161.082031 243.167969 160.726562 242.953125 160.441406 242.808594 C 154.242188 239.25 148.902344 234.832031 144.484375 229.777344 C 139.855469 224.503906 136.152344 218.59375 133.445312 212.324219 L 142.492188 208.480469 C 144.769531 213.820312 147.90625 218.808594 151.820312 223.222656 C 155.382812 227.285156 159.585938 230.84375 164.429688 233.695312 L 165.355469 234.191406 C 178.316406 241.671875 193.132812 243.238281 206.59375 239.605469 C 220.054688 235.972656 232.09375 227.285156 239.570312 214.320312 C 247.050781 201.355469 248.617188 186.542969 244.984375 173.082031 C 241.351562 159.617188 232.664062 147.582031 219.699219 140.101562 C 206.738281 132.625 191.921875 131.058594 178.460938 134.691406 C 165 138.324219 152.960938 147.011719 145.484375 159.976562 C 143.0625 164.175781 141.28125 168.523438 140.070312 173.007812 C 139.214844 176.070312 138.714844 179.136719 138.429688 182.199219 L 177.960938 182.199219 C 178.957031 179.136719 180.953125 176.5 183.515625 174.648438 C 186.082031 172.796875 189.214844 171.65625 192.632812 171.65625 C 196.90625 171.65625 200.753906 173.367188 203.601562 176.214844 C 206.378906 178.992188 208.160156 182.910156 208.160156 187.113281 C 208.160156 187.894531 208.089844 188.679688 208.019531 189.460938 C 207.875 190.246094 207.734375 190.957031 207.519531 191.742188 C 206.523438 194.945312 204.527344 197.652344 201.894531 199.578125 C 199.328125 201.429688 196.195312 202.566406 192.777344 202.566406 C 188.503906 202.566406 184.65625 200.859375 181.878906 198.007812 C 180.242188 196.371094 178.957031 194.304688 178.175781 192.027344 L 106.664062 192.027344 C 105.882812 199.148438 103.316406 205.773438 99.542969 211.542969 C 95.554688 217.453125 90.210938 222.367188 83.945312 225.789062 C 86.292969 232.410156 89.214844 238.75 92.703125 244.804688 C 96.125 250.789062 100.183594 256.484375 104.742188 261.828125 C 108.304688 259.621094 112.148438 257.980469 116.210938 256.914062 C 120.554688 255.703125 125.042969 255.203125 129.527344 255.347656 C 131.023438 252.78125 133.019531 250.574219 135.367188 248.863281 C 138.714844 246.441406 142.847656 245.019531 147.335938 245.019531 C 148.757812 245.019531 150.183594 245.160156 151.609375 245.445312 C 153.03125 245.730469 154.386719 246.230469 155.667969 246.800781 C 159.300781 248.4375 162.363281 251.074219 164.5 254.347656 C 166.566406 257.554688 167.777344 261.398438 167.777344 265.460938 C 167.777344 271.085938 165.496094 276.214844 161.792969 279.917969 C 158.089844 283.621094 152.960938 285.902344 147.335938 285.902344 C 141.707031 285.902344 136.578125 283.621094 132.875 279.917969 C 129.171875 276.214844 126.894531 271.085938 126.894531 265.460938 L 126.894531 265.175781 C 124.1875 265.246094 121.480469 265.671875 118.84375 266.386719 C 114.570312 267.527344 110.582031 269.519531 107.019531 272.226562 L 103.460938 275.003906 L 100.398438 271.65625 C 94.199219 264.890625 88.789062 257.484375 84.300781 249.648438 C 79.671875 241.671875 76.039062 233.265625 73.261719 224.578125 L 71.90625 220.304688 L 76.109375 218.59375 C 82.378906 215.957031 87.71875 211.542969 91.492188 205.988281 C 95.125 200.574219 97.191406 194.09375 97.191406 187.039062 L 97.191406 182.125 L 128.601562 182.125 Z M 128.601562 182.410156 "/></g><g clip-rule="nonzero" clip-path="url(#3257416dc2)"><g clip-rule="nonzero" clip-path="url(#851fcb5947)"><path style=" stroke:none;fill-rule:nonzero;fill:#ffffff;fill-opacity:1;" d="M 60.367188 62.113281 L 314.429688 62.113281 L 314.429688 312.539062 L 60.367188 312.539062 Z M 60.367188 62.113281 "/></g></g></g></svg>